<svg xmlns="http://www.w3.org/2000/svg" viewBox="0 0 128 128" width="128" height="128">
  <!-- Background circle -->
  <circle cx="64" cy="64" r="60" fill="#DC382D" stroke="#A91E1E" stroke-width="2"/>
  
  <!-- Redis-style database cylinders -->
  <ellipse cx="64" cy="45" rx="35" ry="8" fill="#FFFFFF" opacity="0.9"/>
  <rect x="29" y="45" width="70" height="16" fill="#FFFFFF" opacity="0.9"/>
  <ellipse cx="64" cy="61" rx="35" ry="8" fill="#FFFFFF" opacity="0.9"/>
  
  <ellipse cx="64" cy="55" rx="35" ry="8" fill="#FFFFFF" opacity="0.7"/>
  <rect x="29" y="55" width="70" height="16" fill="#FFFFFF" opacity="0.7"/>
  <ellipse cx="64" cy="71" rx="35" ry="8" fill="#FFFFFF" opacity="0.7"/>
  
  <ellipse cx="64" cy="65" rx="35" ry="8" fill="#FFFFFF" opacity="0.5"/>
  <rect x="29" y="65" width="70" height="16" fill="#FFFFFF" opacity="0.5"/>
  <ellipse cx="64" cy="81" rx="35" ry="8" fill="#FFFFFF" opacity="0.5"/>
  
  <!-- Cache/Speed lines -->
  <g stroke="#FFFFFF" stroke-width="3" stroke-linecap="round" opacity="0.8">
    <line x1="20" y1="25" x2="35" y2="25"/>
    <line x1="93" y1="25" x2="108" y2="25"/>
    <line x1="15" y1="35" x2="25" y2="35"/>
    <line x1="103" y1="35" x2="113" y2="35"/>
    <line x1="20" y1="95" x2="35" y2="95"/>
    <line x1="93" y1="95" x2="108" y2="95"/>
    <line x1="15" y1="105" x2="25" y2="105"/>
    <line x1="103" y1="105" x2="113" y2="105"/>
  </g>
  
  <!-- Center highlight -->
  <circle cx="64" cy="64" r="3" fill="#FFFFFF" opacity="0.9"/>
</svg>